<svg version="1.1"
	 xmlns="http://www.w3.org/2000/svg" xmlns:xlink="http://www.w3.org/1999/xlink" x="0px" y="0px" viewBox="0 0 450 191.214"
	 style="enable-background:new 0 0 450 191.214;" xml:space="preserve">
<g>
	<g>
		<path style="fill-rule:evenodd;clip-rule:evenodd;fill:#FFFFFF;" d="M12.75,117.688h11.442c1.961,0,3.796-0.145,5.503-0.436
			c1.707-0.291,3.197-0.799,4.468-1.526c1.271-0.727,2.27-1.671,2.997-2.833c0.726-1.162,1.09-2.615,1.09-4.359
			c0-2.47-0.981-4.323-2.942-5.558c-1.961-1.235-4.722-1.853-8.282-1.853c-3.996,0-7.483,0.454-10.461,1.362
			c-2.979,0.908-5.812,2.125-8.5,3.651L2.615,92.733c2.906-1.816,6.411-3.287,10.516-4.413c4.105-1.126,8.772-1.689,14.003-1.689
			c4.068,0,7.846,0.454,11.333,1.362c3.487,0.908,6.502,2.252,9.045,4.032c2.543,1.78,4.522,4.032,5.939,6.756
			c1.417,2.724,2.125,5.903,2.125,9.535c0,2.761-0.745,5.503-2.234,8.227c-1.489,2.724-3.76,5.031-6.811,6.92
			c1.671,0.872,3.251,1.889,4.74,3.051c1.489,1.162,2.797,2.506,3.923,4.032c1.126,1.526,2.016,3.251,2.67,5.176
			c0.654,1.925,0.981,4.086,0.981,6.484c0,8.064-2.851,13.93-8.554,17.599c-5.703,3.669-13.64,5.503-23.81,5.503
			c-2.543,0-5.067-0.182-7.574-0.545s-4.904-0.817-7.192-1.362c-2.288-0.545-4.432-1.181-6.429-1.907
			c-1.998-0.727-3.76-1.489-5.285-2.288l5.013-13.295c1.017,0.436,2.27,0.926,3.76,1.471c1.489,0.545,3.142,1.072,4.958,1.58
			c1.816,0.509,3.705,0.944,5.667,1.308c1.961,0.363,3.923,0.545,5.884,0.545c4.795,0,8.663-0.69,11.605-2.07
			c2.942-1.38,4.413-3.778,4.413-7.192c0-2.107-0.472-3.814-1.417-5.122c-0.944-1.308-2.234-2.307-3.868-2.997
			c-1.635-0.69-3.56-1.162-5.776-1.417c-2.216-0.254-4.631-0.381-7.247-0.381H12.75V117.688z"/>
		<path style="fill-rule:evenodd;clip-rule:evenodd;fill:#FFFFFF;" d="M107.771,141.661c-2.107,4.795-4.323,8.736-6.647,11.823
			c-2.325,3.088-4.722,5.503-7.192,7.247c-2.47,1.744-4.976,2.942-7.519,3.596c-2.525,0.654-5.104,0.981-7.719,0.981
			c-2.47,0-5.031-0.236-7.683-0.708c-2.652-0.472-5.14-1.144-7.465-2.016l3.051-13.621c3.596,1.308,7.138,1.962,10.643,1.962
			c2.27,0,4.45-0.509,6.538-1.526c2.089-1.017,4.086-3.197,5.993-6.538c-2.997-4.649-5.866-9.426-8.609-14.33
			c-2.742-4.904-5.34-9.735-7.791-14.493c-2.452-4.758-4.704-9.335-6.793-13.73c-2.089-4.395-3.923-8.409-5.539-12.041h18.852
			c1.162,2.833,2.452,5.866,3.887,9.099c1.417,3.233,2.924,6.575,4.522,10.025c1.616,3.451,3.233,6.902,4.867,10.352
			c1.635,3.451,3.233,6.811,4.758,10.08c2.325-6.393,4.559-12.931,6.665-19.615c2.125-6.684,4.159-13.331,6.121-19.942h18.216
			c-1.907,5.594-3.76,10.825-5.594,15.692c-1.816,4.867-3.614,9.481-5.376,13.839c-1.744,4.359-3.487,8.5-5.194,12.423
			C111.04,134.142,109.369,137.956,107.771,141.661z"/>
		<path style="fill-rule:evenodd;clip-rule:evenodd;fill:#FFFFFF;" d="M149.159,102.649v12.423h5.558
			c5.594,0,10.588,0.436,14.984,1.308c4.395,0.872,8.1,2.288,11.115,4.25c3.015,1.961,5.321,4.504,6.92,7.628
			c1.598,3.124,2.397,6.938,2.397,11.442c0,8.355-3.033,14.584-9.099,18.689c-6.066,4.105-14.729,6.157-25.99,6.157
			c-3.051,0-6.52-0.182-10.407-0.545c-3.887-0.363-7.791-1.017-11.714-1.962V88.265h50.127v14.384H149.159L149.159,102.649z
			 M155.916,150.052c2.252,0,4.395-0.145,6.429-0.436c2.034-0.291,3.832-0.817,5.394-1.58c1.562-0.763,2.815-1.798,3.76-3.106
			c0.944-1.308,1.417-3.015,1.417-5.122c0-2.179-0.436-3.959-1.308-5.34c-0.872-1.38-2.107-2.47-3.705-3.269
			c-1.598-0.799-3.56-1.344-5.884-1.635c-2.325-0.291-4.94-0.436-7.846-0.436h-5.013v20.705c0.799,0.073,1.762,0.127,2.888,0.163
			C153.173,150.034,154.463,150.052,155.916,150.052z"/>
	</g>
	<path style="fill-rule:evenodd;clip-rule:evenodd;fill:#FFFFFF;" d="M11.072,185.228h1.599v5.072h-2.01v-3.313H1.59v-11.88h2.125
		v10.121h5.232v-10.121h2.125V185.228L11.072,185.228z M14.316,181.07c0-1.051,0.152-1.969,0.457-2.753
		c0.305-0.784,0.708-1.436,1.211-1.953c0.503-0.518,1.081-0.906,1.736-1.165c0.655-0.259,1.325-0.388,2.011-0.388
		c1.599,0,2.825,0.499,3.678,1.496c0.853,0.998,1.279,2.517,1.279,4.558c0,0.091,0,0.209,0,0.354c0,0.145-0.008,0.278-0.023,0.4
		h-8.133c0.091,1.234,0.449,2.17,1.074,2.81c0.624,0.64,1.599,0.96,2.924,0.96c0.746,0,1.375-0.065,1.885-0.194
		c0.51-0.129,0.895-0.255,1.154-0.377l0.297,1.782c-0.259,0.137-0.712,0.282-1.359,0.434c-0.647,0.152-1.382,0.228-2.205,0.228
		c-1.036,0-1.931-0.156-2.684-0.468c-0.754-0.312-1.375-0.743-1.862-1.291c-0.487-0.548-0.849-1.199-1.085-1.953
		C14.434,182.795,14.316,181.969,14.316,181.07L14.316,181.07z M22.472,179.905c0.015-0.96-0.225-1.748-0.72-2.365
		c-0.495-0.617-1.177-0.925-2.045-0.925c-0.487,0-0.918,0.095-1.291,0.286c-0.373,0.19-0.689,0.438-0.948,0.742
		c-0.259,0.305-0.461,0.655-0.605,1.051c-0.145,0.396-0.24,0.8-0.286,1.211H22.472L22.472,179.905z M37.483,186.988h-2.125v-5.255
		h-5.483v5.255H27.75v-11.88h2.125v4.844h5.483v-4.844h2.125V186.988L37.483,186.988z M49.523,175.107v1.782h-3.861v10.098h-2.125
		v-10.098h-3.861v-1.782H49.523L49.523,175.107z M59.964,181.07c0-1.386-0.343-2.452-1.028-3.199
		c-0.685-0.746-1.599-1.119-2.742-1.119c-0.64,0-1.139,0.023-1.496,0.069c-0.358,0.046-0.644,0.099-0.857,0.16v7.494
		c0.259,0.213,0.632,0.419,1.12,0.617c0.487,0.198,1.02,0.297,1.599,0.297c0.609,0,1.131-0.11,1.565-0.331
		c0.434-0.221,0.788-0.525,1.062-0.914c0.274-0.388,0.472-0.845,0.594-1.371C59.903,182.247,59.964,181.679,59.964,181.07
		L59.964,181.07z M62.18,181.07c0,0.899-0.118,1.729-0.354,2.49c-0.236,0.762-0.583,1.416-1.04,1.965
		c-0.457,0.548-1.017,0.975-1.679,1.279c-0.663,0.305-1.42,0.457-2.273,0.457c-0.685,0-1.291-0.091-1.816-0.274
		c-0.525-0.183-0.918-0.358-1.177-0.525v4.752h-2.125v-15.741c0.503-0.122,1.131-0.255,1.885-0.4
		c0.754-0.145,1.626-0.217,2.616-0.217c0.914,0,1.736,0.145,2.467,0.434c0.731,0.289,1.356,0.701,1.873,1.234
		c0.518,0.533,0.918,1.184,1.199,1.953C62.039,179.246,62.18,180.111,62.18,181.07L62.18,181.07z M80.001,186.988h-2.125v-10.098
		h-5.3v10.098h-2.125v-11.88h9.55V186.988L80.001,186.988z M91.904,181.07c0-1.386-0.343-2.452-1.028-3.199
		c-0.685-0.746-1.599-1.119-2.742-1.119c-0.64,0-1.139,0.023-1.496,0.069c-0.358,0.046-0.644,0.099-0.857,0.16v7.494
		c0.259,0.213,0.632,0.419,1.12,0.617c0.487,0.198,1.02,0.297,1.599,0.297c0.609,0,1.131-0.11,1.565-0.331
		c0.434-0.221,0.788-0.525,1.062-0.914c0.274-0.388,0.472-0.845,0.594-1.371C91.843,182.247,91.904,181.679,91.904,181.07
		L91.904,181.07z M94.12,181.07c0,0.899-0.118,1.729-0.354,2.49c-0.236,0.762-0.583,1.416-1.04,1.965
		c-0.457,0.548-1.017,0.975-1.679,1.279c-0.663,0.305-1.42,0.457-2.273,0.457c-0.685,0-1.291-0.091-1.816-0.274
		c-0.525-0.183-0.918-0.358-1.177-0.525v4.752h-2.125v-15.741c0.503-0.122,1.131-0.255,1.885-0.4
		c0.754-0.145,1.626-0.217,2.616-0.217c0.914,0,1.736,0.145,2.467,0.434c0.731,0.289,1.356,0.701,1.873,1.234
		c0.518,0.533,0.918,1.184,1.199,1.953C93.979,179.246,94.12,180.111,94.12,181.07L94.12,181.07z M107.599,181.047
		c0,0.944-0.137,1.797-0.411,2.559c-0.274,0.762-0.659,1.416-1.154,1.965c-0.495,0.548-1.085,0.971-1.771,1.268
		c-0.685,0.297-1.432,0.446-2.239,0.446c-0.807,0-1.554-0.148-2.239-0.446c-0.685-0.297-1.276-0.72-1.771-1.268
		c-0.495-0.548-0.88-1.203-1.154-1.965c-0.274-0.762-0.411-1.615-0.411-2.559c0-0.929,0.137-1.778,0.411-2.547
		c0.274-0.769,0.659-1.428,1.154-1.976c0.495-0.548,1.085-0.971,1.771-1.268c0.685-0.297,1.432-0.446,2.239-0.446
		c0.807,0,1.554,0.148,2.239,0.446c0.685,0.297,1.276,0.72,1.771,1.268c0.495,0.548,0.88,1.207,1.154,1.976
		C107.462,179.269,107.599,180.118,107.599,181.047L107.599,181.047z M105.383,181.047c0-1.34-0.301-2.403-0.902-3.187
		c-0.602-0.784-1.42-1.177-2.456-1.177c-1.036,0-1.854,0.392-2.456,1.177c-0.602,0.784-0.902,1.847-0.902,3.187
		c0,1.34,0.301,2.403,0.902,3.187c0.602,0.784,1.42,1.177,2.456,1.177c1.036,0,1.854-0.392,2.456-1.177
		C105.083,183.45,105.383,182.388,105.383,181.047L105.383,181.047z M118.977,175.107v1.782h-3.861v10.098h-2.125v-10.098h-3.861
		v-1.782H118.977L118.977,175.107z M120.508,181.07c0-1.051,0.152-1.969,0.457-2.753c0.305-0.784,0.708-1.436,1.211-1.953
		c0.503-0.518,1.081-0.906,1.736-1.165c0.655-0.259,1.325-0.388,2.011-0.388c1.599,0,2.825,0.499,3.678,1.496
		c0.853,0.998,1.279,2.517,1.279,4.558c0,0.091,0,0.209,0,0.354c0,0.145-0.008,0.278-0.023,0.4h-8.133
		c0.091,1.234,0.449,2.17,1.074,2.81c0.624,0.64,1.599,0.96,2.924,0.96c0.746,0,1.375-0.065,1.885-0.194
		c0.51-0.129,0.895-0.255,1.154-0.377l0.297,1.782c-0.259,0.137-0.712,0.282-1.359,0.434c-0.647,0.152-1.382,0.228-2.205,0.228
		c-1.036,0-1.931-0.156-2.684-0.468c-0.754-0.312-1.375-0.743-1.862-1.291c-0.487-0.548-0.849-1.199-1.085-1.953
		C120.626,182.795,120.508,181.969,120.508,181.07L120.508,181.07z M128.664,179.905c0.015-0.96-0.225-1.748-0.72-2.365
		c-0.495-0.617-1.177-0.925-2.045-0.925c-0.487,0-0.918,0.095-1.291,0.286c-0.373,0.19-0.689,0.438-0.948,0.742
		c-0.259,0.305-0.461,0.655-0.605,1.051c-0.145,0.396-0.24,0.8-0.286,1.211H128.664L128.664,179.905z M136.683,174.81
		c0.685,0,1.325,0.069,1.919,0.206c0.594,0.137,1.104,0.343,1.531,0.617c0.426,0.274,0.762,0.617,1.005,1.028
		c0.244,0.411,0.366,0.891,0.366,1.439c0,0.35-0.061,0.67-0.183,0.96c-0.122,0.289-0.274,0.548-0.457,0.777
		c-0.183,0.228-0.385,0.423-0.605,0.583c-0.221,0.16-0.43,0.27-0.628,0.331c0.701,0.213,1.253,0.59,1.656,1.131
		c0.404,0.541,0.605,1.222,0.605,2.045c0,1.127-0.457,1.965-1.371,2.513c-0.914,0.548-2.155,0.822-3.724,0.822
		c-0.96,0-1.786-0.076-2.479-0.228c-0.693-0.152-1.184-0.297-1.474-0.434l0.366-1.805c0.244,0.091,0.682,0.217,1.314,0.377
		c0.632,0.16,1.39,0.24,2.273,0.24c0.96,0,1.691-0.149,2.193-0.445c0.503-0.297,0.754-0.743,0.754-1.337
		c0-0.426-0.095-0.773-0.286-1.04c-0.19-0.267-0.43-0.468-0.72-0.605c-0.289-0.137-0.602-0.228-0.937-0.274
		c-0.335-0.046-0.647-0.069-0.937-0.069h-1.988v-1.691h1.919c0.274,0,0.56-0.019,0.857-0.057c0.297-0.038,0.571-0.118,0.822-0.24
		s0.461-0.293,0.628-0.514c0.168-0.221,0.251-0.514,0.251-0.88c0-0.289-0.072-0.537-0.217-0.743
		c-0.145-0.206-0.339-0.377-0.583-0.514c-0.244-0.137-0.529-0.24-0.857-0.308c-0.327-0.069-0.666-0.103-1.017-0.103
		c-0.274,0-0.571,0.023-0.891,0.069c-0.32,0.046-0.632,0.103-0.937,0.171c-0.305,0.069-0.579,0.141-0.822,0.217
		c-0.244,0.076-0.419,0.145-0.525,0.206l-0.388-1.828c0.122-0.046,0.312-0.107,0.571-0.183c0.259-0.076,0.552-0.145,0.88-0.206
		c0.327-0.061,0.674-0.114,1.04-0.16C135.975,174.833,136.333,174.81,136.683,174.81L136.683,174.81z M154.824,175.107v11.88h-2.056
		v-9.047c-0.457,0.579-0.96,1.257-1.508,2.033c-0.548,0.777-1.097,1.58-1.645,2.41c-0.548,0.83-1.074,1.649-1.576,2.456
		c-0.503,0.807-0.937,1.523-1.302,2.148h-1.896v-11.88h2.056v8.545c0.396-0.655,0.845-1.375,1.348-2.159
		c0.503-0.784,1.024-1.561,1.565-2.33c0.541-0.769,1.081-1.508,1.622-2.216c0.541-0.708,1.047-1.321,1.519-1.839H154.824
		L154.824,175.107z M166.727,181.07c0-1.386-0.343-2.452-1.028-3.199c-0.685-0.746-1.599-1.119-2.742-1.119
		c-0.64,0-1.139,0.023-1.496,0.069c-0.358,0.046-0.644,0.099-0.857,0.16v7.494c0.259,0.213,0.632,0.419,1.12,0.617
		c0.487,0.198,1.02,0.297,1.599,0.297c0.609,0,1.131-0.11,1.565-0.331c0.434-0.221,0.788-0.525,1.062-0.914
		c0.274-0.388,0.472-0.845,0.594-1.371C166.666,182.247,166.727,181.679,166.727,181.07L166.727,181.07z M168.943,181.07
		c0,0.899-0.118,1.729-0.354,2.49c-0.236,0.762-0.583,1.416-1.04,1.965c-0.457,0.548-1.017,0.975-1.679,1.279
		c-0.663,0.305-1.42,0.457-2.273,0.457c-0.685,0-1.291-0.091-1.816-0.274c-0.525-0.183-0.918-0.358-1.177-0.525v4.752h-2.125
		v-15.741c0.503-0.122,1.131-0.255,1.885-0.4c0.754-0.145,1.626-0.217,2.616-0.217c0.914,0,1.736,0.145,2.467,0.434
		c0.731,0.289,1.356,0.701,1.873,1.234c0.518,0.533,0.918,1.184,1.199,1.953C168.802,179.246,168.943,180.111,168.943,181.07
		L168.943,181.07z M182.423,181.047c0,0.944-0.137,1.797-0.411,2.559c-0.274,0.762-0.659,1.416-1.154,1.965
		c-0.495,0.548-1.085,0.971-1.771,1.268c-0.685,0.297-1.432,0.446-2.239,0.446c-0.807,0-1.554-0.148-2.239-0.446
		c-0.685-0.297-1.276-0.72-1.771-1.268c-0.495-0.548-0.88-1.203-1.154-1.965c-0.274-0.762-0.411-1.615-0.411-2.559
		c0-0.929,0.137-1.778,0.411-2.547c0.274-0.769,0.659-1.428,1.154-1.976c0.495-0.548,1.085-0.971,1.771-1.268
		c0.685-0.297,1.432-0.446,2.239-0.446c0.807,0,1.554,0.148,2.239,0.446c0.685,0.297,1.276,0.72,1.771,1.268
		c0.495,0.548,0.88,1.207,1.154,1.976C182.285,179.269,182.423,180.118,182.423,181.047L182.423,181.047z M180.206,181.047
		c0-1.34-0.301-2.403-0.902-3.187c-0.602-0.784-1.42-1.177-2.456-1.177c-1.036,0-1.854,0.392-2.456,1.177
		c-0.602,0.784-0.902,1.847-0.902,3.187c0,1.34,0.301,2.403,0.902,3.187c0.602,0.784,1.42,1.177,2.456,1.177
		c1.036,0,1.854-0.392,2.456-1.177C179.906,183.45,180.206,182.388,180.206,181.047L180.206,181.047z M187.495,185.388
		c0.091,0.015,0.221,0.03,0.388,0.046c0.168,0.015,0.358,0.027,0.571,0.034s0.438,0.015,0.674,0.023
		c0.236,0.008,0.461,0.011,0.674,0.011c0.442,0,0.864-0.03,1.268-0.091c0.404-0.061,0.754-0.168,1.051-0.32
		c0.297-0.152,0.533-0.354,0.708-0.605c0.175-0.251,0.263-0.575,0.263-0.971c0-0.381-0.08-0.697-0.24-0.948
		c-0.16-0.251-0.377-0.453-0.651-0.605c-0.274-0.152-0.598-0.259-0.971-0.32c-0.373-0.061-0.773-0.091-1.199-0.091h-2.536V185.388
		L187.495,185.388z M189.756,179.974c0.411,0,0.788-0.027,1.131-0.08c0.343-0.053,0.64-0.148,0.891-0.286
		c0.251-0.137,0.449-0.32,0.594-0.548c0.145-0.228,0.217-0.518,0.217-0.868c0-0.366-0.091-0.655-0.274-0.868
		c-0.183-0.213-0.423-0.377-0.72-0.491c-0.297-0.114-0.632-0.19-1.005-0.228c-0.373-0.038-0.75-0.057-1.131-0.057
		c-0.35,0-0.704,0.008-1.062,0.023c-0.358,0.015-0.659,0.03-0.902,0.046v3.358H189.756L189.756,179.974z M189.711,187.193
		c-0.899,0-1.729-0.042-2.49-0.126c-0.762-0.084-1.363-0.179-1.805-0.286v-11.56c0.442-0.107,1.043-0.202,1.805-0.286
		c0.762-0.084,1.592-0.126,2.49-0.126c0.625,0,1.234,0.053,1.828,0.16c0.594,0.107,1.119,0.286,1.576,0.537
		c0.457,0.251,0.826,0.594,1.108,1.028c0.282,0.434,0.423,0.971,0.423,1.611c0,0.579-0.145,1.074-0.434,1.485
		c-0.289,0.411-0.678,0.731-1.165,0.96c0.655,0.228,1.177,0.567,1.565,1.017c0.388,0.449,0.583,1.078,0.583,1.885
		c0,0.716-0.141,1.31-0.423,1.782c-0.282,0.472-0.67,0.853-1.165,1.142c-0.495,0.289-1.078,0.491-1.748,0.605
		C191.188,187.136,190.472,187.193,189.711,187.193L189.711,187.193z M201.957,185.457c0.503,0,0.948-0.011,1.337-0.034
		c0.388-0.023,0.712-0.065,0.971-0.126v-3.541c-0.152-0.076-0.4-0.141-0.743-0.194c-0.343-0.053-0.758-0.08-1.245-0.08
		c-0.32,0-0.659,0.023-1.017,0.069c-0.358,0.046-0.685,0.141-0.982,0.286c-0.297,0.145-0.545,0.343-0.743,0.594
		c-0.198,0.251-0.297,0.583-0.297,0.994c0,0.762,0.244,1.291,0.731,1.588C200.456,185.308,201.119,185.457,201.957,185.457
		L201.957,185.457z M201.774,174.81c0.853,0,1.573,0.11,2.159,0.331c0.586,0.221,1.059,0.533,1.416,0.937
		c0.358,0.404,0.613,0.883,0.765,1.439c0.152,0.556,0.228,1.169,0.228,1.839v7.425c-0.183,0.03-0.438,0.072-0.765,0.126
		c-0.327,0.053-0.697,0.103-1.108,0.149c-0.411,0.046-0.857,0.088-1.337,0.126c-0.48,0.038-0.956,0.057-1.428,0.057
		c-0.67,0-1.287-0.069-1.851-0.206c-0.564-0.137-1.051-0.354-1.462-0.651c-0.411-0.297-0.731-0.689-0.96-1.177
		s-0.343-1.074-0.343-1.759c0-0.655,0.133-1.218,0.4-1.691c0.267-0.472,0.628-0.853,1.085-1.142c0.457-0.289,0.99-0.503,1.599-0.64
		c0.609-0.137,1.249-0.206,1.919-0.206c0.213,0,0.434,0.011,0.663,0.034c0.228,0.023,0.445,0.053,0.651,0.091
		c0.206,0.038,0.385,0.072,0.537,0.103c0.152,0.03,0.259,0.053,0.32,0.069v-0.594c0-0.35-0.038-0.697-0.114-1.04
		c-0.076-0.343-0.213-0.647-0.411-0.914c-0.198-0.267-0.468-0.48-0.811-0.64c-0.343-0.16-0.788-0.24-1.337-0.24
		c-0.701,0-1.314,0.049-1.839,0.149c-0.525,0.099-0.918,0.202-1.177,0.308l-0.251-1.759c0.274-0.122,0.731-0.24,1.371-0.354
		C200.334,174.867,201.027,174.81,201.774,174.81L201.774,174.81z M219.594,186.988h-2.125v-5.255h-5.483v5.255h-2.125v-11.88h2.125
		v4.844h5.483v-4.844h2.125V186.988L219.594,186.988z M233.234,175.107v11.88h-2.056v-9.047c-0.457,0.579-0.96,1.257-1.508,2.033
		c-0.548,0.777-1.097,1.58-1.645,2.41c-0.548,0.83-1.074,1.649-1.576,2.456c-0.503,0.807-0.937,1.523-1.302,2.148h-1.896v-11.88
		h2.056v8.545c0.396-0.655,0.845-1.375,1.348-2.159c0.503-0.784,1.024-1.561,1.565-2.33c0.541-0.769,1.081-1.508,1.622-2.216
		c0.541-0.708,1.047-1.321,1.519-1.839H233.234L233.234,175.107z M241.801,182.372c-0.228,0-0.449-0.004-0.663-0.011
		c-0.213-0.008-0.419-0.019-0.617-0.034c-0.487,0.731-0.956,1.512-1.405,2.342c-0.449,0.83-0.849,1.603-1.199,2.319h-2.148
		c0.183-0.442,0.396-0.895,0.64-1.359c0.244-0.465,0.491-0.918,0.743-1.359c0.251-0.442,0.506-0.861,0.765-1.257
		c0.259-0.396,0.503-0.754,0.731-1.074c-0.426-0.152-0.777-0.339-1.051-0.56c-0.274-0.221-0.495-0.468-0.663-0.742
		c-0.168-0.274-0.286-0.567-0.354-0.88c-0.069-0.312-0.103-0.628-0.103-0.948c0-0.67,0.126-1.257,0.377-1.759
		c0.251-0.503,0.598-0.918,1.04-1.245c0.442-0.327,0.963-0.575,1.565-0.743c0.602-0.168,1.26-0.251,1.976-0.251
		c1.005,0,1.858,0.046,2.559,0.137c0.701,0.091,1.287,0.198,1.759,0.32v11.72h-2.102v-4.615H241.801L241.801,182.372z
		 M243.652,176.684c-0.168-0.03-0.446-0.061-0.834-0.091c-0.388-0.03-0.834-0.046-1.337-0.046c-0.868,0-1.569,0.179-2.102,0.537
		c-0.533,0.358-0.8,0.925-0.8,1.702c0,0.762,0.274,1.287,0.822,1.576c0.548,0.289,1.257,0.434,2.125,0.434h2.125V176.684
		L243.652,176.684z M264.671,175.107v11.88h-2.056v-9.047c-0.457,0.579-0.96,1.257-1.508,2.033c-0.548,0.777-1.097,1.58-1.645,2.41
		c-0.548,0.83-1.074,1.649-1.576,2.456c-0.503,0.807-0.937,1.523-1.302,2.148h-1.896v-11.88h2.056v8.545
		c0.396-0.655,0.845-1.375,1.348-2.159c0.503-0.784,1.024-1.561,1.565-2.33c0.541-0.769,1.081-1.508,1.622-2.216
		s1.047-1.321,1.519-1.839H264.671L264.671,175.107z M283.588,175.107v11.88h-2.056v-9.047c-0.457,0.579-0.96,1.257-1.508,2.033
		c-0.548,0.777-1.097,1.58-1.645,2.41c-0.548,0.83-1.074,1.649-1.576,2.456c-0.503,0.807-0.937,1.523-1.302,2.148h-1.896v-11.88
		h2.056v8.545c0.396-0.655,0.845-1.375,1.348-2.159c0.503-0.784,1.024-1.561,1.565-2.33c0.541-0.769,1.081-1.508,1.622-2.216
		c0.541-0.708,1.047-1.321,1.519-1.839H283.588L283.588,175.107z M289.505,178.237c-0.152,1.508-0.267,3.012-0.343,4.512
		c-0.076,1.5-0.137,2.913-0.183,4.238h-2.033c0.03-0.929,0.076-1.9,0.137-2.913c0.061-1.013,0.129-2.033,0.206-3.061
		c0.076-1.028,0.16-2.041,0.251-3.039c0.091-0.998,0.19-1.953,0.297-2.867h1.942c0.487,0.792,1.059,1.877,1.714,3.256
		s1.409,2.966,2.262,4.764c0.853-1.797,1.607-3.385,2.262-4.764c0.655-1.378,1.226-2.464,1.714-3.256h1.965
		c0.107,0.914,0.206,1.87,0.297,2.867c0.091,0.998,0.175,2.011,0.251,3.039c0.076,1.028,0.145,2.049,0.206,3.061
		c0.061,1.013,0.107,1.984,0.137,2.913h-2.102c-0.046-1.325-0.107-2.738-0.183-4.238c-0.076-1.5-0.19-3.004-0.343-4.512
		c-0.244,0.472-0.525,1.04-0.845,1.702c-0.32,0.663-0.636,1.337-0.948,2.022c-0.312,0.685-0.605,1.34-0.88,1.965
		c-0.274,0.624-0.487,1.12-0.64,1.485h-1.782c-0.168-0.381-0.392-0.883-0.674-1.508c-0.282-0.624-0.579-1.283-0.891-1.976
		c-0.312-0.693-0.628-1.371-0.948-2.033C290.031,179.231,289.749,178.679,289.505,178.237L289.505,178.237z M313.494,186.988h-2.125
		v-10.098h-5.3v10.098h-2.125v-11.88h9.55V186.988L313.494,186.988z M321.285,176.889c0,0.503-0.011,1.04-0.034,1.611
		c-0.023,0.571-0.065,1.142-0.126,1.714c-0.061,0.571-0.145,1.135-0.251,1.691c-0.107,0.556-0.244,1.078-0.411,1.565
		c-0.168,0.487-0.377,0.944-0.628,1.371c-0.251,0.426-0.56,0.803-0.925,1.131c-0.366,0.327-0.792,0.602-1.279,0.822
		s-1.059,0.362-1.714,0.423l-0.297-1.782c0.746-0.152,1.337-0.434,1.771-0.845c0.434-0.411,0.781-0.914,1.04-1.508
		c0.228-0.518,0.396-1.104,0.503-1.759c0.107-0.655,0.183-1.337,0.228-2.045c0.046-0.708,0.072-1.42,0.08-2.136
		c0.008-0.716,0.011-1.394,0.011-2.033h7.905v11.88h-2.125v-10.098H321.285L321.285,176.889z M334.833,185.457
		c0.503,0,0.948-0.011,1.337-0.034c0.388-0.023,0.712-0.065,0.971-0.126v-3.541c-0.152-0.076-0.4-0.141-0.743-0.194
		c-0.343-0.053-0.758-0.08-1.245-0.08c-0.32,0-0.659,0.023-1.017,0.069c-0.358,0.046-0.685,0.141-0.982,0.286
		c-0.297,0.145-0.545,0.343-0.743,0.594c-0.198,0.251-0.297,0.583-0.297,0.994c0,0.762,0.244,1.291,0.731,1.588
		C333.333,185.308,333.996,185.457,334.833,185.457L334.833,185.457z M334.651,174.81c0.853,0,1.573,0.11,2.159,0.331
		c0.586,0.221,1.059,0.533,1.417,0.937c0.358,0.404,0.613,0.883,0.765,1.439c0.152,0.556,0.228,1.169,0.228,1.839v7.425
		c-0.183,0.03-0.438,0.072-0.765,0.126c-0.327,0.053-0.697,0.103-1.108,0.149c-0.411,0.046-0.857,0.088-1.337,0.126
		c-0.48,0.038-0.956,0.057-1.428,0.057c-0.67,0-1.287-0.069-1.851-0.206c-0.564-0.137-1.051-0.354-1.462-0.651
		c-0.411-0.297-0.731-0.689-0.96-1.177s-0.343-1.074-0.343-1.759c0-0.655,0.133-1.218,0.4-1.691
		c0.267-0.472,0.628-0.853,1.085-1.142c0.457-0.289,0.99-0.503,1.599-0.64c0.609-0.137,1.249-0.206,1.919-0.206
		c0.213,0,0.434,0.011,0.663,0.034c0.228,0.023,0.445,0.053,0.651,0.091c0.206,0.038,0.385,0.072,0.537,0.103
		c0.152,0.03,0.259,0.053,0.32,0.069v-0.594c0-0.35-0.038-0.697-0.114-1.04c-0.076-0.343-0.213-0.647-0.411-0.914
		c-0.198-0.267-0.468-0.48-0.811-0.64c-0.343-0.16-0.788-0.24-1.337-0.24c-0.701,0-1.314,0.049-1.839,0.149
		c-0.525,0.099-0.918,0.202-1.177,0.308l-0.251-1.759c0.274-0.122,0.731-0.24,1.371-0.354
		C333.211,174.867,333.904,174.81,334.651,174.81L334.651,174.81z M352.471,186.988h-2.125v-5.255h-5.483v5.255h-2.125v-11.88h2.125
		v4.844h5.483v-4.844h2.125V186.988L352.471,186.988z M364.511,175.107v1.782h-3.861v10.098h-2.125v-10.098h-3.861v-1.782H364.511
		L364.511,175.107z M370.726,185.457c0.503,0,0.948-0.011,1.337-0.034c0.388-0.023,0.712-0.065,0.971-0.126v-3.541
		c-0.152-0.076-0.4-0.141-0.743-0.194c-0.343-0.053-0.758-0.08-1.245-0.08c-0.32,0-0.659,0.023-1.017,0.069
		c-0.358,0.046-0.685,0.141-0.982,0.286c-0.297,0.145-0.545,0.343-0.743,0.594s-0.297,0.583-0.297,0.994
		c0,0.762,0.244,1.291,0.731,1.588C369.225,185.308,369.888,185.457,370.726,185.457L370.726,185.457z M370.543,174.81
		c0.853,0,1.573,0.11,2.159,0.331c0.586,0.221,1.059,0.533,1.417,0.937c0.358,0.404,0.613,0.883,0.765,1.439
		c0.152,0.556,0.228,1.169,0.228,1.839v7.425c-0.183,0.03-0.438,0.072-0.765,0.126c-0.327,0.053-0.697,0.103-1.108,0.149
		c-0.411,0.046-0.857,0.088-1.336,0.126c-0.48,0.038-0.956,0.057-1.428,0.057c-0.67,0-1.287-0.069-1.851-0.206
		c-0.564-0.137-1.051-0.354-1.462-0.651c-0.411-0.297-0.731-0.689-0.96-1.177c-0.228-0.487-0.343-1.074-0.343-1.759
		c0-0.655,0.133-1.218,0.4-1.691c0.267-0.472,0.628-0.853,1.085-1.142c0.457-0.289,0.99-0.503,1.599-0.64
		c0.609-0.137,1.249-0.206,1.919-0.206c0.213,0,0.434,0.011,0.663,0.034c0.228,0.023,0.445,0.053,0.651,0.091
		s0.385,0.072,0.537,0.103c0.152,0.03,0.259,0.053,0.32,0.069v-0.594c0-0.35-0.038-0.697-0.114-1.04
		c-0.076-0.343-0.213-0.647-0.411-0.914c-0.198-0.267-0.468-0.48-0.811-0.64c-0.343-0.16-0.788-0.24-1.337-0.24
		c-0.701,0-1.314,0.049-1.839,0.149c-0.525,0.099-0.918,0.202-1.177,0.308l-0.251-1.759c0.274-0.122,0.731-0.24,1.371-0.354
		C369.103,174.867,369.796,174.81,370.543,174.81L370.543,174.81z M388.112,185.228h1.599v5.072h-2.01v-3.313h-9.07v-11.88h2.125
		v10.121h5.232v-10.121h2.125V185.228L388.112,185.228z M402.003,175.107v11.88h-2.056v-9.047c-0.457,0.579-0.96,1.257-1.508,2.033
		c-0.548,0.777-1.097,1.58-1.645,2.41c-0.548,0.83-1.074,1.649-1.576,2.456c-0.503,0.807-0.937,1.523-1.302,2.148h-1.896v-11.88
		h2.056v8.545c0.396-0.655,0.845-1.375,1.348-2.159c0.503-0.784,1.024-1.561,1.565-2.33c0.541-0.769,1.081-1.508,1.622-2.216
		c0.541-0.708,1.047-1.321,1.519-1.839H402.003L402.003,175.107z M415.642,175.107v11.88h-2.056v-9.047
		c-0.457,0.579-0.96,1.257-1.508,2.033c-0.548,0.777-1.097,1.58-1.645,2.41c-0.548,0.83-1.074,1.649-1.576,2.456
		c-0.503,0.807-0.937,1.523-1.302,2.148h-1.896v-11.88h2.056v8.545c0.396-0.655,0.845-1.375,1.348-2.159
		c0.503-0.784,1.024-1.561,1.565-2.33c0.541-0.769,1.081-1.508,1.622-2.216c0.541-0.708,1.047-1.321,1.519-1.839H415.642z"/>
	<g>
		<path style="fill-rule:evenodd;clip-rule:evenodd;fill:#F0F0F1;" d="M201.285,163.844c9.727-0.354,12.528-12.438,12.755-20.724
			c-0.423-32.79,26.269-32.874,27.057-0.37c-0.034,9.124,3.597,20.85,15.386,20.85c9.523-0.97,15.1-13.852,13.527-31.563
			c2.393-22.051-2.624-5.372,4.004-27.14c0.882-13.583,17.414-32.714,16.92-48.558c-0.969-17.699-4.429-17.957-9.99-19.011
			c-8.602-4.079-11.843-7.132-26.372-5.848c-22.073,3.903-37.703-9.571-55.754-9.571c-9.138-0.194-32.299,5.392-34.133,33.934
			c-0.79,21.194,21.678,35.884,21.678,78.521c0.109,5.7,0.284,9.513,0.862,14.963C189.666,161.336,196.84,163.419,201.285,163.844z"
			/>
		<g>
			<path style="fill-rule:evenodd;clip-rule:evenodd;fill:#FFFFFF;" d="M199.641,22.658c-10.347,2.313-19.178,8.065-25.146,21.191
				c-3.551,9.225-3.645,21.318,4.82,37.353c6.466,10.445,27.044,15.129,34.785,17.288c-8.356-1.318-23.81-4.706-31.276-9.377
				c5.588,11.473,11.124,27.87,10.425,47.621c-0.731,12.16,1.467,21.25,8.415,26.259l-6.241-0.038
				c-8.154-8.412-10.321-16.909-8.696-25.461c-0.21-12.189-1.955-24.308-5.239-36.357c-9.762-20.471-23.983-40.284-10.897-64.123
				C180.688,24.996,189.192,22.401,199.641,22.658z"/>
			<path style="fill-rule:evenodd;clip-rule:evenodd;fill:#FFFFFF;" d="M218.677,32.523c7.582,6.539,15.739,12.244,30.49,8.382
				c-6.14-3.699-12.859-4.508-20.117-2.619C226.031,37.316,222.533,35.308,218.677,32.523z"/>
			<path style="fill-rule:evenodd;clip-rule:evenodd;fill:#FFFFFF;" d="M232.764,118.896c23.162,2.134,9.039,35.944,23.399,43.711
				l-3.582,1.401c-4.569-1.665-7.81-5.51-10.982-15.283C242.221,136.545,240.387,125.905,232.764,118.896z"/>
		</g>
		<linearGradient id="SVGID_1_" gradientUnits="userSpaceOnUse" x1="227.8834" y1="165.0103" x2="227.8834" y2="20.9489">
			<stop  offset="0" style="stop-color:#A3A1A0"/>
			<stop  offset="1" style="stop-color:#E8E7E8"/>
		</linearGradient>
		<path style="fill-rule:evenodd;clip-rule:evenodd;fill:url(#SVGID_1_);" d="M200.75,165.437
			c10.203-0.371,15.083-8.954,15.507-24.413c0.953-28.034,22.203-30.791,23.575,4.086c1.09,12.699,5.79,19.922,14.983,20.327
			c9.741,0.297,16.059-11.158,16.178-21.251c2.368-21.829,0.482-25.475,7.044-47.024c2.55-10.513,14.2-23.935,14.34-41.573
			c-0.959-17.52-7.578-20.564-13.082-21.607c-7.598-3.603-13.798-3.179-25.263-2.143c14.382-1.271,17.124,2.504,25.639,6.541
			c5.505,1.043,9.189,0.21,10.149,17.731c-3.88,23.3-20.919,35.163-20.828,76.382c-0.32,18.833-3.849,28.838-13.276,29.798
			c-11.67,0-13.864-13.372-13.83-22.403c-0.988-30.413-28.604-30.33-28.185,2.129c-0.225,8.203-2.998,20.165-12.627,20.515
			c-4.4-0.42-10.465-2.067-12.882-13.957c-0.572-5.395-0.746-9.844-0.853-15.486c0-42.207-22.656-56.127-21.874-77.107
			c1.816-28.255,23.965-33.473,33.011-33.281c17.869,0,33.705,13.001,55.555,9.137c-1.384,0.125-2.844,0.259-4.393,0.396
			c-22.269-0.799-31.94-11.037-50.856-10.893c-9.046-0.192-33.552,5.864-35.369,34.119c-0.768,20.623,20.494,38.462,21.35,77.212
			c0.107,5.642-0.216,10.327,0.356,15.722C187.534,160.284,193.303,164.726,200.75,165.437z"/>
	</g>
	<linearGradient id="SVGID_2_" gradientUnits="userSpaceOnUse" x1="272.0431" y1="100.0138" x2="272.0431" y2="142.0272">
		<stop  offset="0" style="stop-color:#C2C0C0"/>
		<stop  offset="1" style="stop-color:#AAA8A8"/>
	</linearGradient>
	<path style="fill-rule:evenodd;clip-rule:evenodd;fill:url(#SVGID_2_);" d="M271.119,127.532c0.423,3.591,0.276,7.145-0.586,19.106
		c-0.634-1.209-1.204-2.455-1.715-3.733c-1.961-4.904-2.942-10.588-2.942-17.054c0-6.466,1.017-12.15,3.051-17.054
		c2.034-4.904,4.777-9.026,8.227-12.368c0.364-0.353,0.716-0.693,1.056-1.021c-1.671,4.604-1.248,4.132-4.723,18.765
		C272.271,119.294,270.412,121.535,271.119,127.532z"/>
	<path style="fill-rule:evenodd;clip-rule:evenodd;fill:#E4B567;" d="M450,180.771c0,3.196-1.035,5.666-3.106,7.41
		c-2.07,1.744-4.413,2.615-7.029,2.615c-2.615,0-4.958-0.872-7.029-2.615c-2.07-1.744-3.106-4.213-3.106-7.41
		c0-3.196,1.035-5.666,3.106-7.41c2.07-1.743,4.413-2.615,7.029-2.615c2.615,0,4.958,0.872,7.029,2.615
		C448.965,175.104,450,177.574,450,180.771z"/>
	<g>
		<path style="fill-rule:evenodd;clip-rule:evenodd;fill:#FFFFFF;" d="M284.454,125.969c0,3.705,0.454,7.047,1.362,10.025
			c0.908,2.979,2.216,5.539,3.923,7.683c1.707,2.143,3.796,3.796,6.266,4.958c2.47,1.162,5.303,1.744,8.5,1.744
			c3.124,0,5.939-0.581,8.445-1.744c2.506-1.162,4.613-2.815,6.32-4.958c1.707-2.143,3.015-4.704,3.923-7.683
			c0.908-2.979,1.362-6.32,1.362-10.025c0-3.705-0.454-7.065-1.362-10.08c-0.908-3.015-2.216-5.594-3.923-7.737
			c-1.707-2.143-3.814-3.796-6.32-4.958c-2.506-1.162-5.321-1.744-8.445-1.744c-3.196,0-6.03,0.599-8.5,1.798
			c-2.47,1.199-4.559,2.87-6.266,5.013c-1.707,2.143-3.015,4.722-3.923,7.737C284.908,119.013,284.454,122.337,284.454,125.969
			L284.454,125.969z M342.1,125.969c0,6.466-0.963,12.15-2.888,17.054c-1.925,4.904-4.559,9.008-7.9,12.314
			c-3.342,3.305-7.319,5.794-11.932,7.465c-4.613,1.671-9.571,2.506-14.875,2.506c-5.158,0-10.025-0.835-14.602-2.506
			c-4.577-1.671-8.572-4.159-11.987-7.465c-3.414-3.305-6.102-7.41-8.064-12.314c-1.961-4.904-2.942-10.588-2.942-17.054
			c0-6.466,1.017-12.15,3.051-17.054c2.034-4.904,4.777-9.027,8.227-12.368c3.451-3.342,7.446-5.848,11.987-7.519
			c4.54-1.671,9.317-2.506,14.33-2.506c5.158,0,10.025,0.835,14.602,2.506c4.577,1.671,8.572,4.177,11.987,7.519
			c3.414,3.342,6.102,7.465,8.064,12.368C341.12,113.819,342.1,119.504,342.1,125.969z"/>
		<path style="fill-rule:evenodd;clip-rule:evenodd;fill:#FFFFFF;" d="M350.647,163.783V88.265h16.891v44.569
			c2.615-3.923,5.412-8.009,8.391-12.259c2.979-4.25,5.975-8.355,8.99-12.314c3.015-3.959,5.975-7.683,8.881-11.17
			c2.906-3.487,5.558-6.429,7.955-8.827h13.839v75.518h-16.782v-49.473c-6.393,7.483-12.423,15.438-18.089,23.865
			c-5.667,8.427-10.934,16.963-15.801,25.608H350.647L350.647,163.783z M384.428,81.618c-2.325,0-4.559-0.345-6.702-1.035
			c-2.143-0.69-4.086-1.707-5.83-3.051c-1.744-1.344-3.178-2.979-4.304-4.904c-1.126-1.925-1.798-4.123-2.016-6.593l11.224-2.942
			c0.581,2.761,1.544,4.722,2.888,5.885c1.344,1.162,2.924,1.744,4.74,1.744c1.889,0,3.505-0.527,4.849-1.58
			c1.344-1.053,2.307-3.033,2.888-5.939l11.115,2.942c-0.218,2.47-0.89,4.668-2.016,6.593c-1.126,1.925-2.543,3.542-4.25,4.849
			c-1.707,1.308-3.651,2.307-5.83,2.997C389.005,81.273,386.753,81.618,384.428,81.618z"/>
		<path style="fill-rule:evenodd;clip-rule:evenodd;fill:#FFFFFF;" d="M448.813,117.176c0,8.595-0.229,16.606-0.687,24.034
			c-0.458,7.428-1.069,14.962-1.833,22.601h-13.06c-0.764-7.64-1.394-15.174-1.89-22.601c-0.496-7.428-0.745-15.439-0.745-24.034
			V88.686h18.216V117.176z"/>
	</g>
	<linearGradient id="SVGID_3_" gradientUnits="userSpaceOnUse" x1="170.7023" y1="95.3721" x2="185.3512" y2="95.3721">
		<stop  offset="0" style="stop-color:#C9C5C6"/>
		<stop  offset="1" style="stop-color:#C0BDBD"/>
	</linearGradient>
	<path style="fill-rule:evenodd;clip-rule:evenodd;fill:url(#SVGID_3_);" d="M173.865,87.646h8.323v15.453h-2.264l-1.241-3.637
		C177.891,97.141,175.554,87.646,173.865,87.646z"/>
	<rect x="166.332" y="88.267" style="fill-rule:evenodd;clip-rule:evenodd;fill:#FFFFFF;" width="15.088" height="14.384"/>
	<linearGradient id="SVGID_4_" gradientUnits="userSpaceOnUse" x1="234.3116" y1="-2.2753" x2="309.1623" y2="50.1357">
		<stop  offset="0" style="stop-color:#FDC84F"/>
		<stop  offset="1" style="stop-color:#E4B567"/>
	</linearGradient>
	<path style="fill-rule:evenodd;clip-rule:evenodd;fill:url(#SVGID_4_);" d="M299.38,35.775c-0.552-0.075-1.159-0.281-1.679-0.172
		c-2.022,0.425-1.034,2.385-1.325,2.841c-0.503,0.789-3.318,1.838-5.57,0.982l-0.725-0.275c-1.487-0.565-3.397-2.745-3.021-4.051
		c0.758,0.102,1.489-0.228,2.029-0.611c1.417,1.612,3.856,3.118,6.026,1.823c0.457-0.272,0.704-0.48,1.118-0.855
		c0.65-0.588,0.543-0.466,0.933-1.491c0.558-0.069,1.133-0.054,1.75-0.118c1.358-0.142,1.614-0.367,1.166,0.812
		C299.905,35.122,299.643,35.532,299.38,35.775L299.38,35.775z M314.811,27.543c-2.361,0.293-5.469-1.049-8.08,0.069
		c-0.57,0.244-1.797,0.919-2.163,1.427l-0.241-0.092c0.677-1.782,0.409-3.958-0.374-5.44c-2.147-4.061-9.675-4.524-10.323,4.536
		c-0.115,1.615-0.695,6.801-3.569,5.709c0.234-0.489,0.592-0.83,0.792-1.357c0.811-2.133-0.279-4.667-2.712-5.592
		c-1.987-0.755-4.534,0.293-5.287,2.275c-1.316-0.63-1.769-2.042-0.711-3.364c2.152-2.689,4.578-1.916,6.921-2.877
		c2.212-0.906,3.242-2.339,3.198-4.995c-0.012-0.712-0.034-1.266-0.373-1.935c-1.188-2.345-3.823-3.749-6.452-2.93
		c-1.288,0.401-2.292,1.206-2.622,1.297c0.565-1.486,0.322-2.765-0.281-4.08c-0.181-0.394-0.183-0.481-0.308-0.863
		c-0.257-0.787-0.432-0.989-0.497-1.88c-0.039-0.533,0.051-0.604-0.557-0.851c-0.909,1.351-3.109,1.889-4.53,3.068
		c-0.61,0.506-0.828,0.847-1.192,1.805c-0.335-0.471-0.987-3.554-3.05-4.338c-1.931-0.734-4.285-1.557-6.145,0.366
		c-3.906,4.04,0.124,7.554,1.53,10.419l0.212,0.405c0.011,0.024,0.029,0.058,0.039,0.082c0.63,1.444,0.168,4.488-2.329,4.15
		c1.496-3.937-3.84-7.535-7.155-4.337c-1.362,1.314-1.098,2.364-1.383,3.165c-2.249-0.913-1.756-2.29-1.193-3.77
		c0.392-1.031,1.234-2.323,1.817-3.09c5.15-6.778,0.643-11.028-3.47-10.625c-0.361,0.035-0.674,0.12-0.997,0.232
		c-1.665,0.578-3.367,2.043-4.065,3.881l-0.241-0.092c0.062-0.601-0.384-1.879-0.632-2.42c-0.331-0.723-0.893-1.434-1.528-2.018
		c-1.308-1.203-3.374-2.2-4.503-3.485c-0.469,1.233-0.032,4.9,0.118,6.356c0.134,1.305,0.145,2.851,0.374,4.138
		c0.367,2.064,0.389,2.781,0.916,4.996c0.503,2.116-0.128,0.411-0.884,2.4c-0.418,1.1,0.678,1.916,1.623,2.275
		c-0.074,0.548,0.058,0.906,0.074,1.469l0.629,8.73c0.011,0.5,0.14,1.077,0.071,1.585c0.506,0.047,2.045,0.227,2.649,0.298
		c10.941,1.282,23.242,5.852,32.9,10.961c1.966,1.04,3.699,2.039,5.543,3.118c1.362,0.797,4.324,2.87,5.405,3.281
		c0.198-0.414,2.437-2.51,2.948-3.024c0.345-0.347,0.717-0.643,1.051-1.004l3.052-3.014c0.378-0.358,0.772-0.581,1.014-1.087
		c0.552,0.075,1.16,0.281,1.679,0.172c2.019-0.425,1.126-2.471,1.176-2.956c1.101-0.782,2.033-1.317,3.175-2.296
		c0.524-0.449,1-0.869,1.528-1.28c1.606-1.248,5.074-4.919,6.787-6.517c0.242-0.226,0.329-0.315,0.399-0.46L314.811,27.543
		L314.811,27.543z M248.637,15.104c0.448-1.179,0.49-0.841,1.41,0.168c0.418,0.458,0.858,0.828,1.229,1.25
		c-0.429,1.128-0.463,1.733-0.025,3.116c0.811,2.564,3.805,2.884,6.003,2.612c0.264,0.371,0.314,0.654,0.528,1.065
		c0.22,0.423,0.497,0.611,0.612,1.027c-2.871,2.522-8.69,0.769-9.311-4.23c2.087-1.482,1.576-2.995-0.739-3.874
		C248.54,15.686,248.407,15.711,248.637,15.104L248.637,15.104z M279.269,25.781c-0.553,1.455-0.53,2.18,0.396,3.628
		c0.528,0.825,1.568,1.542,2.845,2.027c-0.042,0.407,0.081,0.677,0.162,1.029c-3.614,0.448-6.545-1.299-7.023-5.158
		c0.9,0.122,2.096-0.015,2.616-0.878c0.787-1.305-0.816-2.04-0.589-2.636c0.319-0.838,1.892-3.04,3.097-2.693
		c-0.068,0.666,0.883,1.197-0.757,3.665C279.746,25.17,279.394,25.453,279.269,25.781L279.269,25.781z M270.831,19.256
		c1.1-2.894,2.844,0.516,2.06,2.58c-0.219,0.577-2.031,0.017-2.422,1.509c-0.242,0.923,0.579,2.129,1.436,2.539
		c-0.622,1.532-5.237,3.002-8.359-0.552c0.137-0.19,0.452-0.481,0.657-0.544c0.623-0.19,4.77,1.538,6.113-1.996
		C270.649,21.917,270.177,20.976,270.831,19.256z"/>
</g>
</svg>
